<svg width="612" height="402" viewBox="0 0 612 402" fill="none" xmlns="http://www.w3.org/2000/svg">
<path d="M558.215 225.811C498.855 246.054 430.971 237.208 386.393 208.859C363.045 194.027 359.342 181.152 352.497 159.177" stroke="#9DA57E" stroke-width="2" stroke-linecap="round" stroke-linejoin="round"/>
<path d="M376.078 13.981C360.142 11.3279 344.082 11.0968 328.023 6.56494C284.678 -5.7204 245.725 4.15547 213.551 32.0541C206.369 38.2953 196.974 43.0301 191.284 53.2797C199.567 57.6816 208.363 61.9621 217.001 66.4011" stroke="#9DA57E" stroke-width="2" stroke-linecap="round" stroke-linejoin="round"/>
<path d="M558.215 225.811C539.452 221.433 520.05 220.842 501.125 216.048C438.896 200.232 382.89 173.768 326.252 146.696C280.636 124.892 241.689 96.9689 202.496 68.3468C198.788 65.6496 193.796 63.5894 195.988 58.0132" stroke="#9DA57E" stroke-width="2" stroke-linecap="round" stroke-linejoin="round"/>
<path d="M298.564 273.843C298.217 250.392 286.391 232.624 268.036 215.551C241.573 190.915 242.337 160.478 255.252 130.197C257.383 125.211 257.888 119.398 262.1 115.04" stroke="#9DA57E" stroke-width="2" stroke-linecap="round" stroke-linejoin="round"/>
<path d="M37.8632 141.312C94.6325 149 164.886 114.128 158.146 38.8238" stroke="#9DA57E" stroke-width="2" stroke-linecap="round" stroke-linejoin="round"/>
<path d="M142.557 26.2153C103.543 32.3804 85.4872 57.8498 74.028 87.1507C65.9843 107.769 60.6708 128.773 37.8805 141.369" stroke="#9DA57E" stroke-width="2" stroke-linecap="round" stroke-linejoin="round"/>
<path d="M539.428 216.26C496.758 176.981 453.967 152.026 430.768 146.971C407.279 141.864 387.864 149.725 360.926 157.154" stroke="#9DA57E" stroke-width="2" stroke-linecap="round" stroke-linejoin="round"/>
<path d="M279.632 294.613C325.73 264.331 337.278 225.469 324.38 177.334C320.762 163.834 314.112 150.656 304.728 139.004" stroke="#9DA57E" stroke-width="2" stroke-linecap="round" stroke-linejoin="round"/>
<path d="M98.1367 118.188C125.045 95.2597 138.68 65.5354 150.869 33.8815C166.124 38.4824 190.243 61.4008 202.432 68.362" stroke="#9DA57E" stroke-width="2" stroke-linecap="round" stroke-linejoin="round"/>
<path d="M217.001 66.4014C304.149 83.9887 331.488 67.3486 352.778 45.9605C358.701 39.9868 383.748 14.4394 390.094 4.76172" stroke="#9DA57E" stroke-width="2" stroke-linecap="round" stroke-linejoin="round"/>
<path d="M151.328 33.016C129.272 14.0618 114.745 -5.12757 95.465 -23.4356" stroke="#9DA57E" stroke-width="2" stroke-linecap="round" stroke-linejoin="round"/>
<path d="M305.278 190.754C305.255 168.711 290.406 150.84 283.667 130.687" stroke="#9DA57E" stroke-width="2" stroke-linecap="round" stroke-linejoin="round"/>
</svg>
