<svg width="377" height="552" viewBox="0 0 377 552" fill="none" xmlns="http://www.w3.org/2000/svg">
<path d="M8.39746 115.19C76.7443 110.102 143.891 137.367 180.225 178.577C199.261 200.145 198.658 214.446 198.171 238.995" stroke="#9DA57E" stroke-width="2" stroke-linecap="round" stroke-linejoin="round"/>
<path d="M123.803 382.833C139.368 389.83 155.894 394.355 170.94 403.328C211.528 427.599 255.206 427.784 298.077 407.524C307.653 402.988 318.996 400.599 328.409 391.52C321.36 384.758 313.738 377.984 306.334 371.088" stroke="#9DA57E" stroke-width="2" stroke-linecap="round" stroke-linejoin="round"/>
<path d="M8.39746 115.19C26.292 124.724 46.1499 130.515 64.0674 140.522C122.968 173.485 171.768 215.797 221.011 258.905C260.672 293.625 291.33 332.892 322.002 372.948C324.907 376.727 329.361 380.189 325.174 385.37" stroke="#9DA57E" stroke-width="2" stroke-linecap="round" stroke-linejoin="round"/>
<path d="M293.411 134.826C285.697 159.166 291.808 180.695 304.909 203.248C323.791 235.784 312.523 267.051 288.744 294.915C284.825 299.502 282.302 305.378 276.446 308.76" stroke="#9DA57E" stroke-width="2" stroke-linecap="round" stroke-linejoin="round"/>
<path d="M517.35 341.443C461.298 318.342 376.65 335.649 357.696 415.312" stroke="#9DA57E" stroke-width="2" stroke-linecap="round" stroke-linejoin="round"/>
<path d="M24.5358 130.08C55.1345 182.083 90.7888 219.307 113.036 230.725C135.566 242.275 158.347 239.329 188.759 238.837" stroke="#9DA57E" stroke-width="2" stroke-linecap="round" stroke-linejoin="round"/>
<path d="M320.137 118.402C262.047 137.41 236.728 174.511 233.494 227.725C232.588 242.65 234.927 258.05 240.619 272.604" stroke="#9DA57E" stroke-width="2" stroke-linecap="round" stroke-linejoin="round"/>
<path d="M447.068 349.265C411.351 365.792 387.02 392.887 363.52 422.364C349.33 413.535 332.281 383.401 322.074 372.949" stroke="#9DA57E" stroke-width="2" stroke-linecap="round" stroke-linejoin="round"/>
<path d="M306.334 371.089C222.279 329.644 188.281 339.553 158.905 355.986C150.724 360.582 116.03 380.313 106.137 388.626" stroke="#9DA57E" stroke-width="2" stroke-linecap="round" stroke-linejoin="round"/>
<path d="M362.747 423.137C379.027 448.622 387.442 472.341 401.075 496.418" stroke="#9DA57E" stroke-width="2" stroke-linecap="round" stroke-linejoin="round"/>
<path d="M257.865 218.947C250.3 241.746 259.502 264.188 259.532 286.824" stroke="#9DA57E" stroke-width="2" stroke-linecap="round" stroke-linejoin="round"/>
</svg>
