<svg width="656" height="730" viewBox="0 0 656 730" fill="none" xmlns="http://www.w3.org/2000/svg">
<path d="M521.992 158.102C514.76 230.555 464.179 295.085 401.158 324.549C368.17 339.99 349.024 336.413 316.044 330.843" stroke="#9DA57E" stroke-width="2" stroke-linecap="round" stroke-linejoin="round"/>
<path d="M137.546 223.5C124.91 238.318 115.405 254.651 100.214 268.52C59.1403 305.921 49.8879 351.514 68.3518 400.479C72.4907 411.418 73.371 423.761 83.6654 435.466C94.2308 429.496 104.93 422.93 115.748 416.616" stroke="#9DA57E" stroke-width="2" stroke-linecap="round" stroke-linejoin="round"/>
<path d="M521.992 158.102C505.456 174.832 493.56 194.384 476.382 211.04C419.822 265.78 352.747 308.041 284.505 350.601C229.544 384.879 170.311 408.814 110.012 432.601C104.321 434.858 98.7372 438.796 92.6192 433.354" stroke="#9DA57E" stroke-width="2" stroke-linecap="round" stroke-linejoin="round"/>
<path d="M436.782 451.816C405.573 438.739 375.302 440.686 342.212 449.725C294.476 462.744 254.665 444.527 222.019 413.941C216.646 408.901 209.248 405.054 205.899 398.238" stroke="#9DA57E" stroke-width="2" stroke-linecap="round" stroke-linejoin="round"/>
<path d="M112.2 643.182C154.883 589.384 149.009 497.383 45.568 461.16" stroke="#9DA57E" stroke-width="2" stroke-linecap="round" stroke-linejoin="round"/>
<path d="M19.9653 469.92C5.77087 513.45 29.1089 546.55 61.292 575.081C83.9505 595.138 108.681 612.616 112.284 643.197" stroke="#9DA57E" stroke-width="2" stroke-linecap="round" stroke-linejoin="round"/>
<path d="M498.602 171.893C422.219 193.141 364.709 222.717 344.736 243.605C324.528 264.762 323.803 289.169 318.197 321.043" stroke="#9DA57E" stroke-width="2" stroke-linecap="round" stroke-linejoin="round"/>
<path d="M453.405 483.123C439.765 418.516 394.989 384.418 323.948 370.07C304.023 366.046 282.789 365.316 262.005 368.262" stroke="#9DA57E" stroke-width="2" stroke-linecap="round" stroke-linejoin="round"/>
<path d="M116.145 568.143C101.238 527.422 69.7406 496.418 34.8637 465.79C49.6859 452.785 93.8079 441.185 109.995 432.676" stroke="#9DA57E" stroke-width="2" stroke-linecap="round" stroke-linejoin="round"/>
<path d="M115.748 416.616C188.922 337.344 182.578 299.783 166.489 265.705C161.982 256.211 142.546 215.899 133.383 203.85" stroke="#9DA57E" stroke-width="2" stroke-linecap="round" stroke-linejoin="round"/>
<path d="M33.9821 464.823C-3.71568 476.578 -37.4124 480.481 -72.6661 489.76" stroke="#9DA57E" stroke-width="2" stroke-linecap="round" stroke-linejoin="round"/>
<path d="M330.754 397.34C301.591 384.737 269.453 389.725 238.944 385.09" stroke="#9DA57E" stroke-width="2" stroke-linecap="round" stroke-linejoin="round"/>
</svg>
