<?xml version="1.0" encoding="UTF-8"?>
<svg id="Layer_2" data-name="Layer 2" xmlns="http://www.w3.org/2000/svg" viewBox="0 0 136.66 136.68">
  <defs>
    <style>
      .cls-1 {
        stroke-width: 8px;
      }

      .cls-1, .cls-2 {
        fill: none;
        stroke: #324621;
        stroke-linecap: round;
        stroke-linejoin: round;
      }

      .cls-2 {
        stroke-width: 10px;
      }
    </style>
  </defs>
  <g id="Layer_1-2" data-name="Layer 1">
    <g>
      <path class="cls-2" d="M83.53,131.02c1.27.5,2.58.66,3.96.65,7.86-.04,15.72-.05,23.59,0,9.2.05,17.23-5.71,19.92-15.05.45-1.58.66-3.23.66-4.9,0-28.76-.02-57.51,0-86.27,0-10.11-7.35-18.91-17.74-20.27-.9-.12-1.79-.15-2.69-.15-28.6,0-57.2.02-85.8-.01-10.15-.01-18.94,7.47-20.27,17.74-.12.9-.15,1.79-.15,2.69,0,28.6.02,57.2-.01,85.8-.01,10.28,7.56,18.94,17.74,20.27.9.12,1.79.15,2.69.15,11.5,0,23.01.13,34.51-.1,2.55-.05,5.07.11,7.6.1,4.22,0,8.44-.02,12.66.01,1.12,0,2.16-.18,3.17-.65"/>
      <path class="cls-1" d="M105.69,63.74c-1.18-.44-2.4-.49-3.64-.48-5.22.02-10.45.01-15.67,0-2.77,0-3.33-.46-3.12-3.16.22-2.8.18-5.6.41-8.4.32-3.95,4.34-8.73,9.99-8.71,3.27.01,6.54.05,9.81-.01,2.45-.05,2.8-.39,2.83-2.83.06-4.01.06-8.02,0-12.03-.04-2.45-.39-2.82-2.83-2.83-6.91-.05-13.83-.17-20.74.02-9.55.27-18,7.46-19.3,17.69-.44,3.46-.12,6.96-.17,10.45-.04,2.37.12,4.76-.04,7.12-.17,2.49-.17,2.55-2.66,2.65-3.95.16-7.91.04-11.87.04-2.75,0-3.16.42-3.16,3.16,0,3.85-.02,7.7,0,11.56.02,2.58.42,2.98,3,3,3.9.03,7.81-.01,11.71.01,2.58.02,3,.42,3,3,.02,15.64,0,31.29,0,46.93"/>
      <path class="cls-1" d="M106.64,63.42c-.57-.04-1.08.2-.92.78.62,2.34-.24,4.56-.54,6.81-.43,3.21-.55,6.49-1.69,9.57-1.13.47-2.31.41-3.49.41-4.49,0-8.97-.02-13.46,0-2.58.02-3,.42-3,3-.02,15.64,0,31.29,0,46.93"/>
    </g>
  </g>
</svg>