<svg width="177" height="177" viewBox="0 0 177 177" fill="none" xmlns="http://www.w3.org/2000/svg">
<g clip-path="url(#clip0_687_772)">
<path d="M79.8087 66.579C77.8907 65.9402 77.0446 64.4406 76.4745 62.6872C74.897 57.9872 72.2301 53.8716 69.4818 49.789C63.583 40.9837 48.0026 35.875 39.2954 42.4369C34.2921 46.218 32.5981 51.9634 33.9301 58.2755C34.8207 62.451 31.9906 65.6329 28.021 67.2927C20.1631 70.5793 14.1288 78.9384 17.6225 87.539C21.9072 98.087 33.1428 101.132 46.2663 101.709C49.6409 101.851 52.5624 102.744 56.49 102.613C59.1952 102.507 60.8618 101.594 63.1581 101.181" stroke="#9DA57E" stroke-linecap="round" stroke-linejoin="round"/>
<path d="M115.545 77.6792C115.936 75.7246 117.374 74.715 119.033 73.8994C123.53 71.7889 127.322 68.6416 131.097 65.4538C139.2 58.5703 142.552 42.5572 135.027 34.6487C130.72 30.1122 124.815 29.1079 118.647 31.1881C114.603 32.5474 111.112 30.137 108.968 26.376C104.828 18.9833 95.8166 13.9474 87.6298 18.4074C77.573 23.8632 75.8964 35.3676 76.794 48.4258C77.0208 51.7839 76.4881 54.7888 77.0677 58.6653C77.4871 61.3308 78.6024 62.91 79.2153 65.1188" stroke="#9DA57E" stroke-linecap="round" stroke-linejoin="round"/>
<path d="M98.8574 111.256C98.026 113.059 98.5632 114.731 99.418 116.369C101.809 120.739 102.987 125.506 104.125 130.29C106.559 140.598 99.7143 155.478 88.9492 157.44C82.7604 158.536 77.4187 155.885 73.7034 150.588C71.243 147.098 66.9802 146.986 63.06 148.768C55.3417 152.281 45.0675 151.019 41.1264 142.6C36.2722 132.284 41.7518 121.976 50.2563 111.999C52.4289 109.415 53.7859 106.689 56.5445 103.915C58.4267 102.016 60.3065 101.394 62.1502 99.9833" stroke="#9DA57E" stroke-linecap="round" stroke-linejoin="round"/>
<path d="M115.105 77.5272C116.796 78.5416 118.514 78.2218 120.222 77.5278C124.819 75.6608 129.73 75.0363 134.601 74.4284C145.133 73.175 159.147 81.6612 159.823 92.5408C160.193 98.8182 156.907 103.793 151.191 106.871C147.427 108.919 146.818 113.137 148.149 117.228C150.719 125.306 148.294 135.318 139.441 138.253C128.585 141.859 119.005 135.306 110.054 125.755C107.729 123.297 105.179 121.686 102.729 118.569C101.065 116.457 100.641 114.596 99.4827 112.562" stroke="#9DA57E" stroke-linecap="round" stroke-linejoin="round"/>
</g>
<defs>
<clipPath id="clip0_687_772">
<rect width="135" height="135" fill="white" transform="translate(0.559082 51.3662) rotate(-22.1078)"/>
</clipPath>
</defs>
</svg>
