<?xml version="1.0" encoding="UTF-8"?>
<svg id="Layer_2" data-name="Layer 2" xmlns="http://www.w3.org/2000/svg" viewBox="0 0 136.66 136.68">
  <defs>
    <style>
      .cls-1 {
        stroke-width: 10px;
      }

      .cls-1, .cls-2 {
        fill: none;
        stroke: #324621;
        stroke-linecap: round;
        stroke-linejoin: round;
      }

      .cls-2 {
        stroke-width: 6px;
      }
    </style>
  </defs>
  <g id="Layer_1-2" data-name="Layer 1">
    <g>
      <path class="cls-1" d="M87.48,131.67c7.86-.04,15.72-.05,23.59,0,9.2.05,17.23-5.71,19.92-15.05.45-1.58.66-3.23.66-4.9,0-28.76-.02-57.51,0-86.27,0-10.11-7.35-18.91-17.74-20.27-.9-.12-1.79-.15-2.69-.15-28.6,0-57.2.02-85.8-.01-10.15-.01-18.94,7.47-20.27,17.74-.12.9-.15,1.79-.15,2.69,0,28.6.02,57.2-.01,85.8-.01,10.28,7.56,18.94,17.74,20.27.9.12,1.79.15,2.69.15,11.5,0,23.01.13,34.51-.1,2.55-.05,5.07.11,7.6.1,4.22,0,8.44-.02,12.66.01h7.28Z"/>
      <circle class="cls-1" cx="69.94" cy="68.34" r="30.3"/>
      <circle class="cls-2" cx="110.22" cy="27.76" r="5.6"/>
    </g>
  </g>
</svg>