<svg width="386" height="366" viewBox="0 0 386 366" fill="none" xmlns="http://www.w3.org/2000/svg">
<g clip-path="url(#clip0_458_800)">
<path d="M82.5881 113.321L82.5815 113.317L82.5749 113.313L82.3216 113.151C68.9481 104.061 60.2175 89.2508 60.2175 72.4065C60.2175 44.7669 83.6851 22.4038 112.598 22.4038C118.942 22.4038 125.031 23.55 130.695 25.517L131.075 25.649L131.285 25.3061C140.369 10.4929 157.171 0.5 176.47 0.5C205.468 0.5 228.85 22.9447 228.85 50.5027C228.85 56.7988 227.566 62.8524 225.337 68.4185L225.331 68.4337L225.326 68.4492L193.736 165.239L193.736 165.24C191.849 171.039 184.77 173.652 179.321 170.42L179.32 170.419L88.0994 116.61L88.088 116.603L88.0763 116.597C86.1884 115.614 84.388 114.549 82.5881 113.321Z" stroke="#9DA57E"/>
<path d="M385.414 157.737L385.419 157.737C386.997 185.26 365.003 208.883 336.122 210.438L336.118 210.439C329.519 210.848 323.088 209.948 317.168 208.145L317.153 208.141L317.138 208.137L214.147 183.505L214.143 183.504C207.961 182.088 204.947 175.419 207.974 170.105L207.975 170.104L259.038 80.0922L259.044 80.0809L259.05 80.0694C259.997 78.178 261.026 76.2945 262.138 74.5795L262.151 74.56L262.161 74.5395L262.237 74.3955C270.893 61.1495 285.974 51.9846 303.548 51.0019C332.462 49.4453 357.217 70.5007 358.844 98.058C359.187 104.114 358.416 110.002 356.618 115.48L356.483 115.893L356.873 116.084C372.912 123.948 384.301 139.337 385.414 157.737Z" stroke="#9DA57E"/>
<path d="M179.509 197.197L179.29 197.543L179.375 197.624L124.207 283.736L124.199 283.749L124.191 283.762C121.277 289.001 117.335 293.912 112.364 298.086C90.5831 316.267 57.48 314.216 38.4497 293.421L38.4494 293.421C25.7689 279.592 22.6002 260.941 28.2541 244.66L28.3954 244.253L28.0137 244.053C22.6938 241.267 17.8084 237.664 13.6107 233.082C-5.40925 212.299 -3.26991 180.722 18.4954 162.555L18.496 162.554C31.6961 151.503 49.1896 147.978 65.1464 151.583L65.2008 151.595H65.2566H65.4573C67.5033 152.085 69.5429 152.655 71.5791 153.384L71.5928 153.389L71.6068 153.393L174.077 183.479C180.181 185.291 182.784 192.037 179.509 197.197Z" stroke="#9DA57E"/>
<path d="M295.578 249.113L295.558 249.139L205.982 194.668L205.979 194.667C200.617 191.357 193.452 193.891 191.483 199.61L295.578 249.113ZM295.578 249.113C301.036 251.975 306.065 255.809 310.33 260.615C329.006 281.724 326.269 313.219 304.159 331.061L304.158 331.061C289.414 343.014 269.862 345.72 252.877 339.986L252.493 339.856L252.287 340.205C249.287 345.28 245.431 349.863 240.547 353.791L240.547 353.791C218.422 371.645 185.406 369.02 166.718 347.898C155.407 335.049 151.983 318.279 156.094 303.147L156.112 303.083V303.016V302.843C156.708 300.896 157.389 298.948 158.154 297L158.158 296.99L158.162 296.979L191.482 199.611L295.578 249.113Z" stroke="#9DA57E"/>
</g>
<defs>
<clipPath id="clip0_458_800">
<rect width="386" height="366" fill="white"/>
</clipPath>
</defs>
</svg>
