<svg width="94" height="94" viewBox="0 0 94 94" fill="none" xmlns="http://www.w3.org/2000/svg">
<path d="M19.9526 29.1575L20.0159 29.1999C20.4587 29.5182 20.9014 29.7941 21.3653 30.0488L43.5879 43.8635C44.9795 44.7336 46.7927 44.0333 47.2777 42.463L54.9734 17.6133C55.5215 16.1703 55.8378 14.6 55.8378 12.966C55.8378 5.81452 50.0818 0 42.9554 0C38.2115 0 34.079 2.58895 31.8441 6.42992C30.4525 5.92062 28.9556 5.62353 27.3953 5.62353C20.29 5.62353 14.5129 11.4168 14.5129 18.5895C14.5129 22.961 16.6635 26.802 19.9526 29.1575Z" fill="#324621"/>
<path d="M93.9792 40.489C93.7051 35.7143 90.901 31.7248 86.9582 29.6876C87.401 28.2658 87.5908 26.7379 87.5064 25.1676C87.1058 18.0161 81.0125 12.5624 73.9072 12.9656C69.5849 13.2202 65.8741 15.597 63.7446 19.0347L63.7235 19.0772C63.4494 19.5228 63.1964 20.0109 62.9645 20.499L50.5249 43.6085C49.7448 45.0515 50.5249 46.8553 52.1062 47.2373L77.1963 53.5611C78.6511 54.028 80.2324 54.2614 81.8559 54.1553C88.9612 53.7521 94.3798 47.6193 93.9792 40.4678V40.489Z" fill="#324621"/>
<path d="M43.7985 50.6968C44.6419 49.2963 43.9672 47.4713 42.407 46.9832L17.4434 39.2588C16.9374 39.0678 16.4313 38.9193 15.9253 38.7919H15.8621C11.9404 37.8582 7.63926 38.7707 4.3923 41.6355C-0.963062 46.3466 -1.49016 54.5378 3.19051 59.9279C4.22363 61.1163 5.42543 62.05 6.73264 62.7715C5.34109 66.9945 6.1212 71.8328 9.24165 75.4192C13.9223 80.8093 22.0608 81.3398 27.4162 76.6287C28.639 75.5465 29.6089 74.2732 30.3258 72.9151L43.8196 50.7181L43.7985 50.6968Z" fill="#324621"/>
<path d="M72.0303 63.8531L50.2082 49.8686C48.8377 48.9773 47.0034 49.6564 46.4974 51.2055L38.38 76.2037C38.1903 76.713 38.0216 77.2223 37.874 77.7316V77.7953C36.862 81.7211 37.7053 86.0714 40.4884 89.4031C45.0848 94.8781 53.2021 95.5571 58.6418 90.931C59.8436 89.9124 60.7924 88.724 61.5304 87.4083C65.705 88.8938 70.5122 88.1935 74.1387 85.0952C79.5784 80.4691 80.2531 72.299 75.6567 66.8241C74.6025 65.572 73.3585 64.5746 72.0092 63.8319L72.0303 63.8531Z" fill="#324621"/>
</svg>
