<svg width="251" height="251" viewBox="0 0 251 251" fill="none" xmlns="http://www.w3.org/2000/svg">
<g clip-path="url(#clip0_458_347)">
<path d="M53.8124 77.5923L53.8058 77.5876L53.7991 77.5831L53.6365 77.4739C44.9855 71.271 39.3318 61.1614 39.3318 49.6558C39.3318 30.7697 54.531 15.5215 73.2177 15.5215C77.3182 15.5215 81.2558 16.3028 84.9204 17.645L85.3139 17.7891L85.5246 17.4268C91.4054 7.31241 102.276 0.5 114.751 0.5C133.493 0.5 148.637 15.8038 148.637 34.6344C148.637 38.9344 147.805 43.0691 146.362 46.8709L146.356 46.8855L146.352 46.9005L125.81 113.278L125.81 113.279C124.61 117.169 120.132 118.888 116.704 116.743L116.703 116.743L57.3863 79.841L57.3748 79.8339L57.3629 79.8274C56.1412 79.1562 54.9766 78.4299 53.8124 77.5923Z" fill="#324621" stroke="#9DA57E"/>
<path d="M250.445 108.183L250.448 108.183C251.47 126.99 237.222 143.1 218.556 144.16L218.551 144.161C214.287 144.439 210.129 143.826 206.299 142.596L206.284 142.591L206.269 142.588L139.298 125.695L139.293 125.694C135.401 124.753 133.463 120.3 135.395 116.725L135.395 116.724L168.599 54.9944L168.605 54.9833L168.61 54.972C169.225 53.6777 169.892 52.3913 170.611 51.2214L170.623 51.2022L170.633 51.182L170.678 51.0896C176.283 42.0498 186.037 35.8035 197.396 35.1336C216.084 34.0727 232.113 48.4273 233.167 67.2561C233.389 71.3929 232.889 75.4143 231.726 79.1534L231.601 79.5536L231.974 79.7461C242.348 85.1105 249.724 95.6135 250.445 108.183Z" fill="#324621" stroke="#9DA57E"/>
<path d="M116.373 135.496L116.574 135.162C118.661 131.693 116.988 127.183 113.139 125.977C113.139 125.977 113.139 125.977 113.138 125.977L46.5067 105.344L46.4921 105.34L46.4779 105.335C45.1699 104.84 43.8584 104.453 42.5404 104.12H42.4337H42.375L42.3178 104.106C32.0004 101.648 20.6883 104.051 12.1494 111.59L12.1489 111.591C-1.93806 123.992 -3.32658 145.558 8.9881 159.75L116.373 135.496ZM116.373 135.496L116.428 135.551M116.373 135.496L116.428 135.551M116.428 135.551L80.6131 194.509L80.6053 194.522L80.5982 194.536C78.7115 198.113 76.1596 201.465 72.9434 204.314C58.8564 216.715 37.4512 215.317 25.1401 201.13L25.1398 201.13C16.9327 191.69 14.8779 178.952 18.5403 167.83L18.6699 167.436L18.3071 167.236C14.8649 165.334 11.7042 162.876 8.98828 159.75L116.428 135.551Z" fill="#324621" stroke="#9DA57E"/>
<path d="M192.102 170.968L192.088 170.985L133.841 133.63L133.838 133.628C130.464 131.433 125.934 133.099 124.681 136.934L192.102 170.968ZM192.102 170.968C195.636 172.921 198.893 175.539 201.655 178.821C213.748 193.236 211.972 214.746 197.662 226.925L197.661 226.926C188.124 235.08 175.482 236.924 164.5 233.013L164.102 232.872L163.896 233.24C161.953 236.706 159.458 239.833 156.298 242.513L156.298 242.513C141.99 254.69 120.64 252.903 108.55 238.492C101.229 229.721 99.0094 218.268 101.672 207.931L101.688 207.87V207.806V207.707C102.074 206.382 102.513 205.056 103.007 203.729L103.011 203.719L103.014 203.709L124.681 136.935L192.102 170.968Z" fill="#324621" stroke="#9DA57E"/>
</g>
<defs>
<clipPath id="clip0_458_347">
<rect width="251" height="251" fill="white"/>
</clipPath>
</defs>
</svg>
