<svg width="251" height="251" viewBox="0 0 251 251" fill="none" xmlns="http://www.w3.org/2000/svg">
<g clip-path="url(#clip0_458_347)">
<path d="M53.3515 77.8848L53.5204 77.9982C54.7022 78.8485 55.884 79.5854 57.1221 80.2656L116.439 117.167C120.154 119.491 124.993 117.621 126.288 113.426L146.829 47.0483C148.293 43.1938 149.137 38.9991 149.137 34.6344C149.137 15.5316 133.773 0 114.751 0C102.088 0 91.0578 6.91554 85.0923 17.1755C81.378 15.815 77.3822 15.0215 73.2177 15.0215C54.252 15.0215 38.8318 30.4964 38.8318 49.6558C38.8318 61.3329 44.5721 71.5928 53.3515 77.8848Z" fill="#324621"/>
<path d="M250.944 108.155C250.212 95.4005 242.727 84.7437 232.203 79.302C233.385 75.5041 233.892 71.4228 233.666 67.2282C232.597 48.1254 216.333 33.5574 197.367 34.6344C185.83 35.3147 175.925 41.6633 170.241 50.8463L170.185 50.9596C169.453 52.15 168.778 53.4538 168.159 54.7575L134.955 116.487C132.872 120.342 134.955 125.16 139.176 126.18L206.146 143.072C210.03 144.319 214.25 144.943 218.584 144.659C237.55 143.582 252.013 127.201 250.944 108.098V108.155Z" fill="#324621"/>
<path d="M117.002 135.42C119.253 131.679 117.452 126.804 113.288 125.5L46.6546 104.867C45.3039 104.357 43.9532 103.96 42.6026 103.62H42.4337C31.966 101.126 20.4853 103.563 11.8185 111.215C-2.47614 123.8 -3.88309 145.68 8.61064 160.078C11.3683 163.252 14.5761 165.746 18.0653 167.673C14.351 178.954 16.4333 191.878 24.7624 201.458C37.2562 215.856 58.9795 217.273 73.2741 204.689C76.5382 201.798 79.127 198.397 81.0405 194.769L117.058 135.477L117.002 135.42Z" fill="#324621"/>
<path d="M192.358 170.564L134.111 133.209C130.453 130.828 125.556 132.642 124.206 136.78L102.539 203.555C102.032 204.915 101.582 206.276 101.188 207.636V207.806C98.4866 218.293 100.738 229.913 108.166 238.813C120.435 253.437 142.102 255.251 156.622 242.894C159.83 240.173 162.362 236.999 164.332 233.484C175.475 237.452 188.306 235.582 197.986 227.306C212.506 214.948 214.307 193.125 202.038 178.5C199.224 175.156 195.904 172.492 192.302 170.508L192.358 170.564Z" fill="#324621"/>
</g>
<defs>
<clipPath id="clip0_458_347">
<rect width="251" height="251" fill="white"/>
</clipPath>
</defs>
</svg>
