<svg width="62" height="64" viewBox="0 0 62 64" fill="none" xmlns="http://www.w3.org/2000/svg">
<path d="M60.9981 46.8738V55.9979C61.0016 56.8449 60.8295 57.6833 60.4929 58.4594C60.1563 59.2355 59.6626 59.9322 59.0435 60.5048C58.4244 61.0774 57.6935 61.5134 56.8976 61.7848C56.1017 62.0561 55.2583 62.1569 54.4216 62.0807C45.1384 61.0637 36.2213 57.8657 28.3867 52.7436C21.0976 48.0741 14.9178 41.8438 10.286 34.4954C5.18758 26.561 2.01472 17.5275 1.02449 8.12659C0.949098 7.28555 1.04824 6.4379 1.31561 5.6376C1.58297 4.83731 2.0127 4.10191 2.57742 3.47822C3.14215 2.85453 3.82951 2.35621 4.59573 2.01501C5.36195 1.67381 6.19025 1.49718 7.02789 1.49639H16.0782C17.5423 1.48186 18.9617 2.00454 20.0717 2.96699C21.1818 3.92945 21.9069 5.26602 22.1118 6.72756C22.4938 9.64749 23.2022 12.5145 24.2236 15.2738C24.6294 16.3624 24.7173 17.5455 24.4767 18.6829C24.2361 19.8202 23.6771 20.8642 22.866 21.6911L19.0347 25.5537C23.3292 33.1679 29.5827 39.4724 37.1354 43.802L40.9667 39.9394C41.7869 39.1217 42.8225 38.5582 43.9507 38.3156C45.0788 38.073 46.2523 38.1616 47.3321 38.5708C50.0692 39.6005 52.913 40.3147 55.8093 40.6998C57.2747 40.9082 58.6131 41.6523 59.5698 42.7907C60.5265 43.9291 61.0349 45.3822 60.9981 46.8738Z" stroke="#324621" stroke-width="2" stroke-linecap="round" stroke-linejoin="round"/>
</svg>
